<?xml version="1.0" encoding="UTF-8"?>
<svg version="1.1" xmlns="http://www.w3.org/2000/svg" width="279" height="249">
<path d="M0 0 C2.11730379 1.19854954 4.18949492 2.47823591 6.2265625 3.80859375 C7.43472705 4.56420586 8.64441388 5.31738844 9.85546875 6.06835938 C11.74696482 7.24790438 13.62535598 8.43773658 15.48193359 9.67163086 C19.53436589 12.348728 23.32046656 14.61687843 28 16 C32.43629151 15.00152967 35.42884913 12.73017135 39 10 C40.59673542 9.06082781 42.20836334 8.14637166 43.8359375 7.26171875 C46.12710853 5.9633885 48.41686922 4.66339881 50.69921875 3.34960938 C51.44558594 2.92873047 52.19195312 2.50785156 52.9609375 2.07421875 C53.94779541 1.51093872 53.94779541 1.51093872 54.95458984 0.9362793 C57.39682002 -0.18164297 59.31092187 -0.78671862 62 -1 C64.54174805 0.02539062 64.54174805 0.02539062 67.26171875 1.65625 C68.28458984 2.25888672 69.30746094 2.86152344 70.36132812 3.48242188 C71.45896484 4.14822266 72.55660156 4.81402344 73.6875 5.5 C74.84869608 6.18969104 76.01082303 6.87781698 77.17382812 7.56445312 C79.59008344 8.99265187 82.00218654 10.42751399 84.41162109 11.8671875 C89.90429082 15.14160324 95.45482502 18.31563372 101 21.5 C103.16694076 22.74952479 105.3336066 23.99952647 107.5 25.25 C108.5725 25.86875 109.645 26.4875 110.75 27.125 C120.5 32.75 120.5 32.75 123.75585938 34.62841797 C125.90295136 35.86710002 128.05008614 37.1057079 130.19726562 38.34423828 C135.29588809 41.2853335 140.39405296 44.22721413 145.49072266 47.17169189 C147.91047665 48.56958601 150.33047263 49.96706089 152.75048828 51.36450195 C154.46801052 52.35652324 156.18518052 53.34915429 157.90234375 54.34179688 C158.93488281 54.93798828 159.96742188 55.53417969 161.03125 56.1484375 C161.94455078 56.67614746 162.85785156 57.20385742 163.79882812 57.74755859 C165.17988691 58.53336511 166.57878495 59.28939248 168 60 C168 71.22 168 82.44 168 94 C163.05 94 158.1 94 153 94 C153.21785156 92.42992188 153.43570312 90.85984375 153.66015625 89.2421875 C154.22175162 82.60976198 154.4974207 76.27567625 152 70 C146.32804462 63.86957248 138.01462821 60.89540424 130.49951172 57.60644531 C124.93020914 55.04986578 119.74751046 51.90206938 114.5 48.75 C112.51868558 47.60207646 110.53692518 46.45492228 108.5546875 45.30859375 C104.98175074 43.21506652 101.50456462 41.03619136 98.0703125 38.72265625 C97.31298828 38.22862305 96.55566406 37.73458984 95.77539062 37.22558594 C94.39472653 36.31831031 93.03395839 35.37956952 91.70117188 34.40332031 C89.72691279 33.1264104 88.32389537 32.38316966 86 32 C82.2943919 33.03761823 79.25299843 34.98229166 76 37 C73.98408807 38.15021852 71.96712063 39.29858867 69.94921875 40.4453125 C67.8600943 41.66866187 65.77287193 42.89526484 63.6875 44.125 C62.10098633 45.05505859 62.10098633 45.05505859 60.48242188 46.00390625 C54.85273001 49.29730428 54.85273001 49.29730428 49.28833008 52.69873047 C47 54 47 54 45 54 C45 54.66 45 55.32 45 56 C45.7425 56.28875 46.485 56.5775 47.25 56.875 C49.56900199 57.82368263 51.76932676 58.86559779 54 60 C54.56258346 76.18515872 54.98474098 92.36711572 55.24349213 108.55970955 C55.36687936 116.08009095 55.53475817 123.59437618 55.81054688 131.11083984 C56.05105067 137.66880428 56.20486712 144.2223574 56.25812387 150.78460872 C56.28924448 154.25700043 56.36125514 157.7167866 56.53752136 161.18509293 C57.39072505 178.64116264 57.39072505 178.64116264 54 186 C48.21564704 192.21851835 40.59990053 195.58387753 32.86286163 198.77995872 C29.02346752 200.4161605 25.5127943 202.45819624 21.953125 204.62109375 C19.71942092 205.89440684 17.48507771 207.16659961 15.25 208.4375 C12.98406493 209.72732002 10.71843702 211.0176798 8.453125 212.30859375 C6.85307617 213.21907471 6.85307617 213.21907471 5.22070312 214.14794922 C0.9041975 216.63013627 -3.37361073 219.17651416 -7.64550781 221.73461914 C-10 223 -10 223 -12 223 C-9.31911511 226.12769904 -7.00145202 227.89808827 -3 229 C1.23858139 227.43809143 4.93363416 225.01643872 8.75 222.625 C9.90601358 221.92518661 11.06359715 221.22796077 12.22265625 220.53320312 C14.63056807 219.08711638 17.03132508 217.63010228 19.42773438 216.16503906 C24.89052902 212.83791552 30.44944985 209.67766669 36 206.5 C38.14888832 205.26119836 40.2973236 204.02161052 42.4453125 202.78125 C46.3741425 200.51457181 50.30327938 198.24842761 54.23284912 195.98303223 C55.98341241 194.97380896 57.73390411 193.96446164 59.484375 192.95507812 C61.66392165 191.6983234 63.84359832 190.44179414 66.0234375 189.18554688 C67.02375 188.60869141 68.0240625 188.03183594 69.0546875 187.4375 C70.02631836 186.87804687 70.99794922 186.31859375 71.99902344 185.7421875 C74.12353665 184.5088222 76.24069131 183.26274096 78.35253906 182.0078125 C79.4350293 181.36585938 80.51751953 180.72390625 81.6328125 180.0625 C82.6139502 179.47597656 83.59508789 178.88945312 84.60595703 178.28515625 C87 177 87 177 89 177 C89.47348712 163.30900754 89.80384191 149.62252948 89.95596504 135.92397976 C90.03103437 129.56083546 90.15368155 123.2063302 90.38867188 116.84692383 C92.98240669 90.3667698 92.98240669 90.3667698 85.39099121 66.21270752 C79.67201366 60.55618624 72.39869421 57.71334925 64.693573 55.74012756 C62 55 62 55 59 53 C59 52.34 59 51.68 59 51 C61.21731936 49.60179862 63.44538154 48.23236642 65.6875 46.875 C66.31333984 46.47667969 66.93917969 46.07835937 67.58398438 45.66796875 C69.44921875 44.5546875 69.44921875 44.5546875 73 43 C77.03803953 44.18507682 80.55187158 46.37005343 84.17578125 48.4765625 C85.0308149 48.97172867 85.0308149 48.97172867 85.90312195 49.47689819 C87.70808352 50.52314007 89.51031402 51.57398575 91.3125 52.625 C92.54213964 53.33884848 93.77195562 54.05239331 95.00195312 54.765625 C98.00334992 56.50690874 101.00231667 58.25232936 104 60 C104.51551242 76.20265679 104.90259849 92.40263037 105.13986778 108.61152172 C105.25300574 116.13923964 105.40697991 123.66184584 105.65966797 131.1862793 C105.88000185 137.75045359 106.02110366 144.31092819 106.06994689 150.87869722 C106.09848795 154.35407101 106.16465584 157.81887119 106.32606125 161.29082298 C107.26615566 182.3162786 107.26615566 182.3162786 101.85626221 188.41780663 C96.59869097 192.60855732 90.83668392 195.38084996 84.63297653 197.89490128 C81.03729786 199.40406015 77.84151622 201.30930922 74.515625 203.33984375 C72.42781441 204.54033484 70.33930603 205.73961344 68.25 206.9375 C60.78802181 211.21903749 53.35851696 215.54255483 46 220 C52.64523313 225.91548232 52.64523313 225.91548232 60.88769531 227.78369141 C64.13744982 226.96538956 66.48064631 225.85082762 69.359375 224.1484375 C70.37902344 223.55224609 71.39867187 222.95605469 72.44921875 222.34179688 C74.08310547 221.36823242 74.08310547 221.36823242 75.75 220.375 C76.90697352 219.69497822 78.06453713 219.01595953 79.22265625 218.33789062 C81.62665148 216.92932676 84.02805773 215.51649359 86.42773438 214.10058594 C91.92834955 210.85982978 97.46607069 207.6834017 103 204.5 C105.14599058 203.26199129 107.29182307 202.02370849 109.4375 200.78515625 C113.38542992 198.50736716 117.33428819 196.23120557 121.28442383 193.95724487 C123.05045522 192.94052802 124.81627431 191.92344342 126.58203125 190.90625 C128.78734155 189.63599127 130.99304216 188.36640982 133.19921875 187.09765625 C135.19382056 185.94839785 137.18134949 184.78675246 139.16064453 183.61132812 C142 182 142 182 144.92919922 180.66992188 C147.7120238 179.3242066 149.80524709 178.18135636 152 176 C153.33228713 171.84760566 153.26776428 167.95381704 153.125 163.625 C153.12886719 161.94857422 153.12886719 161.94857422 153.1328125 160.23828125 C153.1328125 157.49183067 153.07236194 154.74549714 153 152 C157.95 152 162.9 152 168 152 C168 163.22 168 174.44 168 186 C135.3984375 204.80859375 135.3984375 204.80859375 132.19238281 206.65820312 C130.04845933 207.89510728 127.90457974 209.13208754 125.76074219 210.36914062 C120.31807441 213.50958117 114.87464455 216.64868634 109.4296875 219.78515625 C107.24473927 221.04417991 105.05984316 222.30329401 102.875 223.5625 C101.8118457 224.17512695 100.74869141 224.78775391 99.65332031 225.41894531 C94.17364723 228.57997438 88.70209497 231.75415594 83.2421875 234.94921875 C82.15180176 235.58722412 81.06141602 236.22522949 79.93798828 236.88256836 C77.87019965 238.09381933 75.80340568 239.30677055 73.73779297 240.52172852 C72.34391357 241.33855103 72.34391357 241.33855103 70.921875 242.171875 C69.70902832 242.8848877 69.70902832 242.8848877 68.47167969 243.61230469 C67.65602539 244.07024414 66.84037109 244.52818359 66 245 C65.02973877 245.60827637 64.05947754 246.21655273 63.05981445 246.84326172 C60 248 60 248 57.10327148 247.10302734 C56.11915283 246.5198877 55.13503418 245.93674805 54.12109375 245.3359375 C53.03505859 244.70816406 51.94902344 244.08039063 50.83007812 243.43359375 C49.71052734 242.75425781 48.59097656 242.07492188 47.4375 241.375 C45.75237305 240.39080078 45.75237305 240.39080078 44.03320312 239.38671875 C35.83933114 234.58626849 35.83933114 234.58626849 32.45336914 232.22119141 C30.0947901 230.80590982 30.0947901 230.80590982 27.57666016 231.07446289 C24.30617643 232.24922164 21.68391189 233.90783579 18.7734375 235.80859375 C17.56527295 236.56420586 16.35558612 237.31738844 15.14453125 238.06835938 C13.25303518 239.24790438 11.37464402 240.43773658 9.51806641 241.67163086 C5.46635737 244.3482502 1.67502223 246.60614209 -3 248 C-7.43455046 247.04556094 -10.4136536 244.68667763 -14 242 C-15.96557603 240.87233165 -17.94805167 239.77367357 -19.9453125 238.703125 C-29.82433728 233.190485 -39.68651923 227.66031257 -49.41674805 221.88842773 C-55.72835288 218.14652091 -62.07997296 214.47576256 -68.4375 210.8125 C-69.52804688 210.1839209 -70.61859375 209.5553418 -71.7421875 208.90771484 C-76.38074727 206.23500157 -81.02018386 203.56381451 -85.66015625 200.89355469 C-88.67542401 199.15827558 -91.69016407 197.42208261 -94.70462036 195.68539429 C-96.40670474 194.70523373 -98.10947413 193.72626304 -99.81225586 192.74731445 C-100.84229736 192.15394287 -101.87233887 191.56057129 -102.93359375 190.94921875 C-103.84165771 190.42674561 -104.74972168 189.90427246 -105.68530273 189.3659668 C-107.49126201 188.30022034 -109.25521129 187.16319248 -111 186 C-111.26697888 183.37537756 -111.34832984 180.98934067 -111.29296875 178.3671875 C-111.28872391 177.61535187 -111.28447906 176.86351624 -111.28010559 176.08889771 C-111.2632917 173.68390315 -111.22563624 171.27974191 -111.1875 168.875 C-111.17245659 167.24610584 -111.15876758 165.61719856 -111.14648438 163.98828125 C-111.11592876 159.991607 -111.05721735 155.99673784 -111 152 C-106.05 152 -101.1 152 -96 152 C-96.20625 153.57007813 -96.4125 155.14015625 -96.625 156.7578125 C-97.15264318 163.37470048 -97.3866416 169.71153737 -95 176 C-89.68819579 182.07530253 -81.71380988 185.06888315 -74.50488281 188.34179688 C-68.60618395 191.13254379 -63.05218664 194.49680492 -57.4375 197.8125 C-55.26786948 199.06023388 -53.09732497 200.30638007 -50.92578125 201.55078125 C-47.30509088 203.64205697 -43.71664637 205.76923624 -40.16796875 207.98046875 C-39.4706665 208.41319092 -38.77336426 208.84591309 -38.05493164 209.29174805 C-36.28196281 210.40173195 -34.51934976 211.52821222 -32.7578125 212.65625 C-30.23039146 214.19959797 -30.23039146 214.19959797 -28.16748047 213.76611328 C-25.44605152 212.80420249 -23.07648417 211.50623622 -20.5625 210.0859375 C-19.50160156 209.48910156 -18.44070312 208.89226562 -17.34765625 208.27734375 C-16.24292969 207.64957031 -15.13820313 207.02179688 -14 206.375 C-12.92621094 205.77042969 -11.85242188 205.16585937 -10.74609375 204.54296875 C-3.45745332 200.42940393 3.78148266 196.23518866 11 192 C9.21849026 190.03096292 7.83187965 188.91619408 5.42429829 187.71604443 C3 186 3 186 2.38476086 183.66306782 C2.38936982 182.73666587 2.39397879 181.81026392 2.39872742 180.85578918 C2.3918541 179.79148178 2.38498077 178.72717438 2.37789917 177.63061523 C2.39587555 176.46320801 2.41385193 175.29580078 2.43237305 174.09301758 C2.43164291 172.86362961 2.43091278 171.63424164 2.43016052 170.36759949 C2.43304969 166.99538515 2.45814114 163.62469668 2.49303031 160.25275254 C2.52426331 156.72939429 2.52722209 153.20601622 2.53315735 149.68254089 C2.54870495 143.01007613 2.58974526 136.33802044 2.6399048 129.6657359 C2.69577021 122.06973811 2.72327762 114.47372089 2.74838197 106.87756884 C2.80066075 91.25147556 2.8886202 75.6257905 3 60 C3.77423309 59.55786163 4.54846619 59.11572327 5.34616089 58.66018677 C25.25292493 47.29783759 25.25292493 47.29783759 45.125 35.875 C46.66994141 34.98554687 46.66994141 34.98554687 48.24609375 34.078125 C53.89320596 30.82045163 59.49425572 27.50740066 65.03466797 24.07080078 C67 23 67 23 69 23 C69 22.34 69 21.68 69 21 C67.00458132 20.31974363 65.00382009 19.65509503 63 19 C62.36739258 18.76659912 61.73478516 18.53319824 61.08300781 18.29272461 C58.19290722 17.88657944 56.92505602 18.79371732 54.421875 20.25390625 C53.07065552 21.03000244 53.07065552 21.03000244 51.69213867 21.82177734 C50.72123291 22.39621582 49.75032715 22.9706543 48.75 23.5625 C47.73075439 24.15240723 46.71150879 24.74231445 45.66137695 25.35009766 C42.43392888 27.22167653 39.21670688 29.11003205 36 31 C34.02011782 32.15335127 32.03966394 33.30572177 30.05859375 34.45703125 C26.10054946 36.75949195 22.14668254 39.06891835 18.1953125 41.3828125 C10.65747779 45.79173469 3.08955693 50.14827653 -4.48168945 54.49951172 C-6.46406397 55.64041666 -8.43322715 56.80464704 -10.38713074 57.99365234 C-12.95266024 59.49643952 -15.5159524 60.62748701 -18.2878418 61.69802856 C-23.81844239 64.03491162 -29.57998725 66.51517349 -31.96609688 72.37088013 C-33.51011925 79.62100618 -33.09651871 87.01813821 -32.87890625 94.3828125 C-32.86962738 96.76746926 -32.86786375 99.15216605 -32.87327576 101.53683472 C-32.86740141 107.78957346 -32.75997152 114.03653444 -32.63085938 120.28778076 C-32.51705653 126.67587973 -32.49998523 133.06417109 -32.47460938 139.453125 C-32.41071441 151.97081168 -32.23945214 164.48452624 -32 177 C-31.23404007 177.29881073 -30.46808014 177.59762146 -29.6789093 177.90548706 C-26.6496941 179.1431233 -23.89302517 180.65008837 -21.04296875 182.2578125 C-19.93115234 182.88300781 -18.81933594 183.50820312 -17.67382812 184.15234375 C-16.51168099 184.8098291 -15.34957209 185.46738203 -14.1875 186.125 C-13.00601811 186.79064641 -11.824379 187.45601384 -10.64257812 188.12109375 C-7.76016095 189.74465934 -4.87937669 191.37105015 -2 193 C-3.37989178 197.13967533 -5.41878201 197.72160674 -9.1875 199.8125 C-10.31542969 200.45832031 -11.44335938 201.10414063 -12.60546875 201.76953125 C-16.80729497 203.29263282 -17.93523574 202.65430444 -22 201 C-24.11867342 199.89227404 -26.20907301 198.72935339 -28.2734375 197.5234375 C-28.84204498 197.19332672 -29.41065247 196.86321594 -29.99649048 196.52310181 C-31.79239353 195.47889449 -33.58371638 194.42710791 -35.375 193.375 C-36.59996446 192.66095037 -37.82522226 191.94740372 -39.05078125 191.234375 C-42.03726655 189.49538341 -45.01969696 187.74957061 -48 186 C-48.30406755 169.84060303 -48.53310591 153.68213753 -48.67355824 137.52056885 C-48.74051581 130.0158307 -48.83174197 122.51287257 -48.98071289 115.00927734 C-49.1105406 108.4667818 -49.19421232 101.92557522 -49.22315043 95.38182735 C-49.2400627 91.91803786 -49.27960039 88.4579345 -49.37449074 84.99533081 C-49.92856998 63.97042598 -49.92856998 63.97042598 -46.76332092 59.09523964 C-43.35663431 55.78728365 -39.48072698 54.47051365 -35 53 C-32.87873419 51.81839295 -30.77810883 50.5980973 -28.7109375 49.32421875 C-26.60012754 48.10994443 -24.48812488 46.89774132 -22.375 45.6875 C-20.11182032 44.3882975 -17.84880093 43.08881574 -15.5859375 41.7890625 C-14.47959961 41.15387695 -13.37326172 40.51869141 -12.23339844 39.86425781 C-9.20295547 38.11701661 -6.1814791 36.35555807 -3.1640625 34.5859375 C-2.28572754 34.07200439 -1.40739258 33.55807129 -0.50244141 33.02856445 C1.13007782 32.07214709 2.76070811 31.11249599 4.38916016 30.14916992 C9.77718834 27 9.77718834 27 12 27 C12 26.34 12 25.68 12 25 C11.360625 24.773125 10.72125 24.54625 10.0625 24.3125 C6.58340146 22.82145777 3.48727306 20.92954566 0.28125 18.92578125 C-2.71857322 17.70838724 -3.93452007 17.9632125 -7 19 C-9.46102725 20.31371561 -11.81471088 21.66761321 -14.1875 23.125 C-15.71274102 24.04169805 -17.23883949 24.9569704 -18.765625 25.87109375 C-20.01762695 26.62302002 -20.01762695 26.62302002 -21.29492188 27.39013672 C-26.3116104 30.37570027 -31.37714865 33.27677865 -36.4375 36.1875 C-38.67711055 37.47781735 -40.91669349 38.76818262 -43.15625 40.05859375 C-44.28417969 40.70812012 -45.41210938 41.35764648 -46.57421875 42.02685547 C-49.9771932 43.98686398 -53.37940151 45.94819421 -56.78125 47.91015625 C-57.88678223 48.54598633 -58.99231445 49.18181641 -60.13134766 49.83691406 C-62.32254016 51.10483494 -64.50724889 52.3840325 -66.68505859 53.67480469 C-71.64197558 56.59708105 -76.51576002 59.30264373 -81.8203125 61.54296875 C-89.20762262 64.66348508 -89.20762262 64.66348508 -95 70 C-97.45057642 77.7931038 -96.74094356 85.9784806 -96 94 C-100.95 94 -105.9 94 -111 94 C-111 82.78 -111 71.56 -111 60 C-107.7 58.14375 -104.4 56.2875 -101 54.375 C-91.73057454 49.14655286 -82.52028573 43.8243331 -73.33789062 38.44482422 C-65.58813075 33.91084091 -57.80128849 29.44441013 -50 25 C-38.94196166 18.69968504 -27.93214968 12.32116584 -16.94921875 5.890625 C-15.6660376 5.1471582 -15.6660376 5.1471582 -14.35693359 4.38867188 C-12.87508268 3.51558632 -11.40663474 2.61890587 -9.95947266 1.68945312 C-6.10064166 -0.73983515 -4.34171925 -1.3459369 0 0 Z M18 70 C16.54751089 73.4300966 16.638141 76.62845313 16.72192383 80.31640625 C16.70600693 81.34152313 16.69009003 82.36664001 16.6736908 83.42282104 C16.63483771 86.80449348 16.66873471 90.18088627 16.70703125 93.5625 C16.70283344 95.91610448 16.69552029 98.2697053 16.68522644 100.62329102 C16.67500101 105.5532642 16.70038933 110.4814215 16.7512207 115.41113281 C16.81379873 121.72734123 16.79137347 128.03981714 16.74269581 134.35603333 C16.71404377 139.21534767 16.72875319 144.07378553 16.75671959 148.93307495 C16.7652318 151.26145352 16.76067331 153.58991806 16.74277687 155.91824341 C16.72459755 159.17543221 16.76437509 162.42693118 16.81958008 165.68359375 C16.80293304 166.64377411 16.78628601 167.60395447 16.76913452 168.5932312 C16.89074707 172.63500512 17.05961966 175.02912793 19.94147301 178.00442505 C24.08569594 181.15105119 24.08569594 181.15105119 29.03080654 181.76359653 C32.813543 180.29676023 36.08379266 178.90366385 39 176 C40.19200662 172.61282519 40.11516525 169.36155395 40.06689453 165.79711914 C40.08412567 164.77214828 40.10135681 163.74717743 40.11911011 162.69114685 C40.16449747 159.30478749 40.15094562 155.9217296 40.1328125 152.53515625 C40.14328141 150.18011998 40.15583306 147.82509213 40.17037964 145.47007751 C40.19120031 140.53441916 40.18205022 135.59991353 40.15283203 130.66430664 C40.11845757 124.34011731 40.16542702 118.01956241 40.23581123 111.69577885 C40.27974477 106.832229 40.2768808 101.96954985 40.26028061 97.10586357 C40.25864054 94.77464245 40.27238811 92.44335772 40.30182266 90.11232185 C40.33669921 86.8500391 40.30767351 83.5942954 40.26220703 80.33227539 C40.28559143 79.37052399 40.30897583 78.40877258 40.33306885 77.4178772 C40.25338584 74.60647494 40.09457048 72.59602148 39 70 C30.97621674 63.05179929 26.02472087 63.05742407 18 70 Z " fill="#8C6028" transform="translate(111,1)"/>
</svg>
